<svg xmlns="http://www.w3.org/2000/svg" viewBox="0 0 1600 1000" preserveAspectRatio="xMidYMid slice">
<defs>
  <pattern id="ht" width="14" height="14" patternUnits="userSpaceOnUse" patternTransform="rotate(0)">
    <rect width="14" height="14" fill="#dcdcdc"/><circle cx="7" cy="7" r="3.1" fill="#111"/>
  </pattern>
  <pattern id="htd" width="12" height="12" patternUnits="userSpaceOnUse">
    <rect width="12" height="12" fill="#9a9a9a"/><circle cx="6" cy="6" r="4.2" fill="#0c0c0c"/>
  </pattern>
  <pattern id="htl" width="16" height="16" patternUnits="userSpaceOnUse">
    <rect width="16" height="16" fill="#f2f2f2"/><circle cx="8" cy="8" r="2.0" fill="#222"/>
  </pattern>
  <pattern id="bricks" width="80" height="44" patternUnits="userSpaceOnUse">
    <rect width="80" height="44" fill="#1a1a1a"/>
    <rect width="80" height="44" fill="none" stroke="#555" stroke-width="2"/>
    <line x1="40" y1="0" x2="40" y2="22" stroke="#555" stroke-width="2"/>
    <line x1="0" y1="22" x2="80" y2="22" stroke="#555" stroke-width="2"/>
    <line x1="0" y1="44" x2="80" y2="44" stroke="#555" stroke-width="2"/>
  </pattern>
  <radialGradient id="glow" cx="50%" cy="42%" r="60%">
    <stop offset="0%" stop-color="#ffffff" stop-opacity="0.9"/>
    <stop offset="55%" stop-color="#cfcfcf" stop-opacity="0.25"/>
    <stop offset="100%" stop-color="#000000" stop-opacity="0"/>
  </radialGradient>
</defs>
<rect width="1600" height="1000" fill="#fff"/><rect width="1600" height="1000" fill="url(#htl)"/><rect x="0" y="640" width="1600" height="360" fill="url(#ht)"/><rect x="120" y="120" width="800" height="430" fill="#fff" stroke="#111" stroke-width="5"/><line x1="120" y1="180" x2="920" y2="180" stroke="#111" stroke-width="4"/><rect x="150" y="136" width="22" height="40" fill="#111"/><rect x="220" y="136" width="22" height="40" fill="#111"/><rect x="290" y="136" width="22" height="40" fill="#111"/><rect x="360" y="136" width="22" height="40" fill="#111"/><rect x="430" y="136" width="22" height="40" fill="#111"/><rect x="500" y="136" width="22" height="40" fill="#111"/><rect x="570" y="136" width="22" height="40" fill="#111"/><rect x="640" y="136" width="22" height="40" fill="#111"/><rect x="710" y="136" width="22" height="40" fill="#111"/><rect x="780" y="136" width="22" height="40" fill="#111"/><rect x="850" y="136" width="22" height="40" fill="#111"/><line x1="120" y1="270" x2="920" y2="270" stroke="#111" stroke-width="4"/><rect x="150" y="226" width="22" height="40" fill="#111"/><rect x="220" y="226" width="22" height="40" fill="#111"/><rect x="290" y="226" width="22" height="40" fill="#111"/><rect x="360" y="226" width="22" height="40" fill="#111"/><rect x="430" y="226" width="22" height="40" fill="#111"/><rect x="500" y="226" width="22" height="40" fill="#111"/><rect x="570" y="226" width="22" height="40" fill="#111"/><rect x="640" y="226" width="22" height="40" fill="#111"/><rect x="710" y="226" width="22" height="40" fill="#111"/><rect x="780" y="226" width="22" height="40" fill="#111"/><rect x="850" y="226" width="22" height="40" fill="#111"/><line x1="120" y1="360" x2="920" y2="360" stroke="#111" stroke-width="4"/><rect x="150" y="316" width="22" height="40" fill="#111"/><rect x="220" y="316" width="22" height="40" fill="#111"/><rect x="290" y="316" width="22" height="40" fill="#111"/><rect x="360" y="316" width="22" height="40" fill="#111"/><rect x="430" y="316" width="22" height="40" fill="#111"/><rect x="500" y="316" width="22" height="40" fill="#111"/><rect x="570" y="316" width="22" height="40" fill="#111"/><rect x="640" y="316" width="22" height="40" fill="#111"/><rect x="710" y="316" width="22" height="40" fill="#111"/><rect x="780" y="316" width="22" height="40" fill="#111"/><rect x="850" y="316" width="22" height="40" fill="#111"/><line x1="120" y1="450" x2="920" y2="450" stroke="#111" stroke-width="4"/><rect x="150" y="406" width="22" height="40" fill="#111"/><rect x="220" y="406" width="22" height="40" fill="#111"/><rect x="290" y="406" width="22" height="40" fill="#111"/><rect x="360" y="406" width="22" height="40" fill="#111"/><rect x="430" y="406" width="22" height="40" fill="#111"/><rect x="500" y="406" width="22" height="40" fill="#111"/><rect x="570" y="406" width="22" height="40" fill="#111"/><rect x="640" y="406" width="22" height="40" fill="#111"/><rect x="710" y="406" width="22" height="40" fill="#111"/><rect x="780" y="406" width="22" height="40" fill="#111"/><rect x="850" y="406" width="22" height="40" fill="#111"/><rect x="1000" y="120" width="480" height="430" fill="url(#htl)" stroke="#111" stroke-width="6"/><line x1="1240" y1="120" x2="1240" y2="550" stroke="#111" stroke-width="4"/><line x1="1000" y1="335" x2="1480" y2="335" stroke="#111" stroke-width="4"/><rect x="200" y="620" width="900" height="220" fill="url(#htd)" stroke="#111" stroke-width="6"/><rect x="1180" y="700" width="120" height="90" rx="14" fill="#fff" stroke="#111" stroke-width="6"/><path d="M1300 720 q50 20 0 50" fill="none" stroke="#111" stroke-width="6"/><path d="M1210 690 q6 -30 24 0" fill="none" stroke="#888" stroke-width="4"/></svg>