<svg xmlns="http://www.w3.org/2000/svg" viewBox="0 0 1600 1000" preserveAspectRatio="xMidYMid slice">
<defs>
  <pattern id="ht" width="14" height="14" patternUnits="userSpaceOnUse" patternTransform="rotate(0)">
    <rect width="14" height="14" fill="#dcdcdc"/><circle cx="7" cy="7" r="3.1" fill="#111"/>
  </pattern>
  <pattern id="htd" width="12" height="12" patternUnits="userSpaceOnUse">
    <rect width="12" height="12" fill="#9a9a9a"/><circle cx="6" cy="6" r="4.2" fill="#0c0c0c"/>
  </pattern>
  <pattern id="htl" width="16" height="16" patternUnits="userSpaceOnUse">
    <rect width="16" height="16" fill="#f2f2f2"/><circle cx="8" cy="8" r="2.0" fill="#222"/>
  </pattern>
  <pattern id="bricks" width="80" height="44" patternUnits="userSpaceOnUse">
    <rect width="80" height="44" fill="#1a1a1a"/>
    <rect width="80" height="44" fill="none" stroke="#555" stroke-width="2"/>
    <line x1="40" y1="0" x2="40" y2="22" stroke="#555" stroke-width="2"/>
    <line x1="0" y1="22" x2="80" y2="22" stroke="#555" stroke-width="2"/>
    <line x1="0" y1="44" x2="80" y2="44" stroke="#555" stroke-width="2"/>
  </pattern>
  <radialGradient id="glow" cx="50%" cy="42%" r="60%">
    <stop offset="0%" stop-color="#ffffff" stop-opacity="0.9"/>
    <stop offset="55%" stop-color="#cfcfcf" stop-opacity="0.25"/>
    <stop offset="100%" stop-color="#000000" stop-opacity="0"/>
  </radialGradient>
</defs>
<rect width="1600" height="1000" fill="#0b0b0b"/><line x1="800" y1="430" x2="3400" y2="430" stroke="#2b2b2b" stroke-width="2" opacity="0.6"/><line x1="800" y1="430" x2="3343" y2="971" stroke="#2b2b2b" stroke-width="2" opacity="0.6"/><line x1="800" y1="430" x2="3175" y2="1488" stroke="#2b2b2b" stroke-width="2" opacity="0.6"/><line x1="800" y1="430" x2="2903" y2="1958" stroke="#2b2b2b" stroke-width="2" opacity="0.6"/><line x1="800" y1="430" x2="2540" y2="2362" stroke="#2b2b2b" stroke-width="2" opacity="0.6"/><line x1="800" y1="430" x2="2100" y2="2682" stroke="#2b2b2b" stroke-width="2" opacity="0.6"/><line x1="800" y1="430" x2="1603" y2="2903" stroke="#2b2b2b" stroke-width="2" opacity="0.6"/><line x1="800" y1="430" x2="1072" y2="3016" stroke="#2b2b2b" stroke-width="2" opacity="0.6"/><line x1="800" y1="430" x2="528" y2="3016" stroke="#2b2b2b" stroke-width="2" opacity="0.6"/><line x1="800" y1="430" x2="-3" y2="2903" stroke="#2b2b2b" stroke-width="2" opacity="0.6"/><line x1="800" y1="430" x2="-500" y2="2682" stroke="#2b2b2b" stroke-width="2" opacity="0.6"/><line x1="800" y1="430" x2="-940" y2="2362" stroke="#2b2b2b" stroke-width="2" opacity="0.6"/><line x1="800" y1="430" x2="-1303" y2="1958" stroke="#2b2b2b" stroke-width="2" opacity="0.6"/><line x1="800" y1="430" x2="-1575" y2="1488" stroke="#2b2b2b" stroke-width="2" opacity="0.6"/><line x1="800" y1="430" x2="-1743" y2="971" stroke="#2b2b2b" stroke-width="2" opacity="0.6"/><line x1="800" y1="430" x2="-1800" y2="430" stroke="#2b2b2b" stroke-width="2" opacity="0.6"/><line x1="800" y1="430" x2="-1743" y2="-111" stroke="#2b2b2b" stroke-width="2" opacity="0.6"/><line x1="800" y1="430" x2="-1575" y2="-628" stroke="#2b2b2b" stroke-width="2" opacity="0.6"/><line x1="800" y1="430" x2="-1303" y2="-1098" stroke="#2b2b2b" stroke-width="2" opacity="0.6"/><line x1="800" y1="430" x2="-940" y2="-1502" stroke="#2b2b2b" stroke-width="2" opacity="0.6"/><line x1="800" y1="430" x2="-500" y2="-1822" stroke="#2b2b2b" stroke-width="2" opacity="0.6"/><line x1="800" y1="430" x2="-3" y2="-2043" stroke="#2b2b2b" stroke-width="2" opacity="0.6"/><line x1="800" y1="430" x2="528" y2="-2156" stroke="#2b2b2b" stroke-width="2" opacity="0.6"/><line x1="800" y1="430" x2="1072" y2="-2156" stroke="#2b2b2b" stroke-width="2" opacity="0.6"/><line x1="800" y1="430" x2="1603" y2="-2043" stroke="#2b2b2b" stroke-width="2" opacity="0.6"/><line x1="800" y1="430" x2="2100" y2="-1822" stroke="#2b2b2b" stroke-width="2" opacity="0.6"/><line x1="800" y1="430" x2="2540" y2="-1502" stroke="#2b2b2b" stroke-width="2" opacity="0.6"/><line x1="800" y1="430" x2="2903" y2="-1098" stroke="#2b2b2b" stroke-width="2" opacity="0.6"/><line x1="800" y1="430" x2="3175" y2="-628" stroke="#2b2b2b" stroke-width="2" opacity="0.6"/><line x1="800" y1="430" x2="3343" y2="-111" stroke="#2b2b2b" stroke-width="2" opacity="0.6"/><rect x="-40" y="514" width="120" height="80" rx="6" fill="#0c0c0c" stroke="#f4f4f4" stroke-width="2.4"/><rect x="-35" y="518" width="110" height="68" fill="#cfe0e0" opacity="0.85"/><rect x="220" y="514" width="120" height="80" rx="6" fill="#0c0c0c" stroke="#f4f4f4" stroke-width="2.4"/><rect x="225" y="518" width="110" height="68" fill="#cfe0e0" opacity="0.85"/><rect x="480" y="514" width="120" height="80" rx="6" fill="#0c0c0c" stroke="#f4f4f4" stroke-width="2.4"/><rect x="485" y="518" width="110" height="68" fill="#cfe0e0" opacity="0.85"/><rect x="740" y="514" width="120" height="80" rx="6" fill="#0c0c0c" stroke="#f4f4f4" stroke-width="2.4"/><rect x="745" y="518" width="110" height="68" fill="#cfe0e0" opacity="0.85"/><rect x="1000" y="514" width="120" height="80" rx="6" fill="#0c0c0c" stroke="#f4f4f4" stroke-width="2.4"/><rect x="1005" y="518" width="110" height="68" fill="#cfe0e0" opacity="0.85"/><rect x="1260" y="514" width="120" height="80" rx="6" fill="#0c0c0c" stroke="#f4f4f4" stroke-width="2.4"/><rect x="1265" y="518" width="110" height="68" fill="#cfe0e0" opacity="0.85"/><rect x="1520" y="514" width="120" height="80" rx="6" fill="#0c0c0c" stroke="#f4f4f4" stroke-width="2.4"/><rect x="1525" y="518" width="110" height="68" fill="#cfe0e0" opacity="0.85"/><rect x="246" y="654" width="79" height="53" rx="6" fill="#0c0c0c" stroke="#f4f4f4" stroke-width="1.6"/><rect x="251" y="658" width="69" height="41" fill="#cfe0e0" opacity="0.85"/><rect x="417" y="654" width="79" height="53" rx="6" fill="#0c0c0c" stroke="#f4f4f4" stroke-width="1.6"/><rect x="422" y="658" width="69" height="41" fill="#cfe0e0" opacity="0.85"/><rect x="589" y="654" width="79" height="53" rx="6" fill="#0c0c0c" stroke="#f4f4f4" stroke-width="1.6"/><rect x="594" y="658" width="69" height="41" fill="#cfe0e0" opacity="0.85"/><rect x="760" y="654" width="79" height="53" rx="6" fill="#0c0c0c" stroke="#f4f4f4" stroke-width="1.6"/><rect x="765" y="658" width="69" height="41" fill="#cfe0e0" opacity="0.85"/><rect x="932" y="654" width="79" height="53" rx="6" fill="#0c0c0c" stroke="#f4f4f4" stroke-width="1.6"/><rect x="937" y="658" width="69" height="41" fill="#cfe0e0" opacity="0.85"/><rect x="1104" y="654" width="79" height="53" rx="6" fill="#0c0c0c" stroke="#f4f4f4" stroke-width="1.6"/><rect x="1109" y="658" width="69" height="41" fill="#cfe0e0" opacity="0.85"/><rect x="1275" y="654" width="79" height="53" rx="6" fill="#0c0c0c" stroke="#f4f4f4" stroke-width="1.6"/><rect x="1280" y="658" width="69" height="41" fill="#cfe0e0" opacity="0.85"/><rect x="430" y="745" width="53" height="35" rx="6" fill="#0c0c0c" stroke="#f4f4f4" stroke-width="1.1"/><rect x="435" y="749" width="43" height="23" fill="#cfe0e0" opacity="0.85"/><rect x="545" y="745" width="53" height="35" rx="6" fill="#0c0c0c" stroke="#f4f4f4" stroke-width="1.1"/><rect x="550" y="749" width="43" height="23" fill="#cfe0e0" opacity="0.85"/><rect x="659" y="745" width="53" height="35" rx="6" fill="#0c0c0c" stroke="#f4f4f4" stroke-width="1.1"/><rect x="664" y="749" width="43" height="23" fill="#cfe0e0" opacity="0.85"/><rect x="774" y="745" width="53" height="35" rx="6" fill="#0c0c0c" stroke="#f4f4f4" stroke-width="1.1"/><rect x="779" y="749" width="43" height="23" fill="#cfe0e0" opacity="0.85"/><rect x="888" y="745" width="53" height="35" rx="6" fill="#0c0c0c" stroke="#f4f4f4" stroke-width="1.1"/><rect x="893" y="749" width="43" height="23" fill="#cfe0e0" opacity="0.85"/><rect x="1002" y="745" width="53" height="35" rx="6" fill="#0c0c0c" stroke="#f4f4f4" stroke-width="1.1"/><rect x="1007" y="749" width="43" height="23" fill="#cfe0e0" opacity="0.85"/><rect x="1117" y="745" width="53" height="35" rx="6" fill="#0c0c0c" stroke="#f4f4f4" stroke-width="1.1"/><rect x="1122" y="749" width="43" height="23" fill="#cfe0e0" opacity="0.85"/><rect x="548" y="808" width="36" height="24" rx="6" fill="#0c0c0c" stroke="#f4f4f4" stroke-width="0.7"/><rect x="553" y="812" width="26" height="12" fill="#cfe0e0" opacity="0.85"/><rect x="626" y="808" width="36" height="24" rx="6" fill="#0c0c0c" stroke="#f4f4f4" stroke-width="0.7"/><rect x="631" y="812" width="26" height="12" fill="#cfe0e0" opacity="0.85"/><rect x="704" y="808" width="36" height="24" rx="6" fill="#0c0c0c" stroke="#f4f4f4" stroke-width="0.7"/><rect x="709" y="812" width="26" height="12" fill="#cfe0e0" opacity="0.85"/><rect x="782" y="808" width="36" height="24" rx="6" fill="#0c0c0c" stroke="#f4f4f4" stroke-width="0.7"/><rect x="787" y="812" width="26" height="12" fill="#cfe0e0" opacity="0.85"/><rect x="860" y="808" width="36" height="24" rx="6" fill="#0c0c0c" stroke="#f4f4f4" stroke-width="0.7"/><rect x="865" y="812" width="26" height="12" fill="#cfe0e0" opacity="0.85"/><rect x="938" y="808" width="36" height="24" rx="6" fill="#0c0c0c" stroke="#f4f4f4" stroke-width="0.7"/><rect x="943" y="812" width="26" height="12" fill="#cfe0e0" opacity="0.85"/><rect x="1016" y="808" width="36" height="24" rx="6" fill="#0c0c0c" stroke="#f4f4f4" stroke-width="0.7"/><rect x="1021" y="812" width="26" height="12" fill="#cfe0e0" opacity="0.85"/><rect width="1600" height="1000" fill="url(#glow)" opacity="0.35"/></svg>