<svg xmlns="http://www.w3.org/2000/svg" viewBox="0 0 1600 1000" preserveAspectRatio="xMidYMid slice">
<defs>
  <pattern id="ht" width="14" height="14" patternUnits="userSpaceOnUse" patternTransform="rotate(0)">
    <rect width="14" height="14" fill="#dcdcdc"/><circle cx="7" cy="7" r="3.1" fill="#111"/>
  </pattern>
  <pattern id="htd" width="12" height="12" patternUnits="userSpaceOnUse">
    <rect width="12" height="12" fill="#9a9a9a"/><circle cx="6" cy="6" r="4.2" fill="#0c0c0c"/>
  </pattern>
  <pattern id="htl" width="16" height="16" patternUnits="userSpaceOnUse">
    <rect width="16" height="16" fill="#f2f2f2"/><circle cx="8" cy="8" r="2.0" fill="#222"/>
  </pattern>
  <pattern id="bricks" width="80" height="44" patternUnits="userSpaceOnUse">
    <rect width="80" height="44" fill="#1a1a1a"/>
    <rect width="80" height="44" fill="none" stroke="#555" stroke-width="2"/>
    <line x1="40" y1="0" x2="40" y2="22" stroke="#555" stroke-width="2"/>
    <line x1="0" y1="22" x2="80" y2="22" stroke="#555" stroke-width="2"/>
    <line x1="0" y1="44" x2="80" y2="44" stroke="#555" stroke-width="2"/>
  </pattern>
  <radialGradient id="glow" cx="50%" cy="42%" r="60%">
    <stop offset="0%" stop-color="#ffffff" stop-opacity="0.9"/>
    <stop offset="55%" stop-color="#cfcfcf" stop-opacity="0.25"/>
    <stop offset="100%" stop-color="#000000" stop-opacity="0"/>
  </radialGradient>
</defs>
<rect width="1600" height="1000" fill="#fff"/><rect width="1600" height="700" fill="url(#htl)"/><rect x="0" y="700" width="1600" height="300" fill="url(#ht)"/><circle cx="1280" cy="220" r="80" fill="#fff" stroke="#111" stroke-width="4"/><line x1="1280" y1="220" x2="3880" y2="220" stroke="#bbb" stroke-width="2" opacity="0.5"/><line x1="1280" y1="220" x2="3815" y2="799" stroke="#bbb" stroke-width="2" opacity="0.5"/><line x1="1280" y1="220" x2="3623" y2="1348" stroke="#bbb" stroke-width="2" opacity="0.5"/><line x1="1280" y1="220" x2="3313" y2="1841" stroke="#bbb" stroke-width="2" opacity="0.5"/><line x1="1280" y1="220" x2="2901" y2="2253" stroke="#bbb" stroke-width="2" opacity="0.5"/><line x1="1280" y1="220" x2="2408" y2="2563" stroke="#bbb" stroke-width="2" opacity="0.5"/><line x1="1280" y1="220" x2="1859" y2="2755" stroke="#bbb" stroke-width="2" opacity="0.5"/><line x1="1280" y1="220" x2="1280" y2="2820" stroke="#bbb" stroke-width="2" opacity="0.5"/><line x1="1280" y1="220" x2="701" y2="2755" stroke="#bbb" stroke-width="2" opacity="0.5"/><line x1="1280" y1="220" x2="152" y2="2563" stroke="#bbb" stroke-width="2" opacity="0.5"/><line x1="1280" y1="220" x2="-341" y2="2253" stroke="#bbb" stroke-width="2" opacity="0.5"/><line x1="1280" y1="220" x2="-753" y2="1841" stroke="#bbb" stroke-width="2" opacity="0.5"/><line x1="1280" y1="220" x2="-1063" y2="1348" stroke="#bbb" stroke-width="2" opacity="0.5"/><line x1="1280" y1="220" x2="-1255" y2="799" stroke="#bbb" stroke-width="2" opacity="0.5"/><line x1="1280" y1="220" x2="-1320" y2="220" stroke="#bbb" stroke-width="2" opacity="0.5"/><line x1="1280" y1="220" x2="-1255" y2="-359" stroke="#bbb" stroke-width="2" opacity="0.5"/><line x1="1280" y1="220" x2="-1063" y2="-908" stroke="#bbb" stroke-width="2" opacity="0.5"/><line x1="1280" y1="220" x2="-753" y2="-1401" stroke="#bbb" stroke-width="2" opacity="0.5"/><line x1="1280" y1="220" x2="-341" y2="-1813" stroke="#bbb" stroke-width="2" opacity="0.5"/><line x1="1280" y1="220" x2="152" y2="-2123" stroke="#bbb" stroke-width="2" opacity="0.5"/><line x1="1280" y1="220" x2="701" y2="-2315" stroke="#bbb" stroke-width="2" opacity="0.5"/><line x1="1280" y1="220" x2="1280" y2="-2380" stroke="#bbb" stroke-width="2" opacity="0.5"/><line x1="1280" y1="220" x2="1859" y2="-2315" stroke="#bbb" stroke-width="2" opacity="0.5"/><line x1="1280" y1="220" x2="2408" y2="-2123" stroke="#bbb" stroke-width="2" opacity="0.5"/><line x1="1280" y1="220" x2="2901" y2="-1813" stroke="#bbb" stroke-width="2" opacity="0.5"/><line x1="1280" y1="220" x2="3313" y2="-1401" stroke="#bbb" stroke-width="2" opacity="0.5"/><line x1="1280" y1="220" x2="3623" y2="-908" stroke="#bbb" stroke-width="2" opacity="0.5"/><line x1="1280" y1="220" x2="3815" y2="-359" stroke="#bbb" stroke-width="2" opacity="0.5"/><rect x="40" y="260" width="360" height="440" fill="url(#htd)" stroke="#111" stroke-width="5"/><rect x="70" y="300" width="50" height="64" fill="#fff" stroke="#111" stroke-width="3"/><rect x="160" y="300" width="50" height="64" fill="#fff" stroke="#111" stroke-width="3"/><rect x="250" y="300" width="50" height="64" fill="#fff" stroke="#111" stroke-width="3"/><rect x="340" y="300" width="50" height="64" fill="#fff" stroke="#111" stroke-width="3"/><rect x="70" y="410" width="50" height="64" fill="#fff" stroke="#111" stroke-width="3"/><rect x="160" y="410" width="50" height="64" fill="#fff" stroke="#111" stroke-width="3"/><rect x="250" y="410" width="50" height="64" fill="#fff" stroke="#111" stroke-width="3"/><rect x="340" y="410" width="50" height="64" fill="#fff" stroke="#111" stroke-width="3"/><rect x="70" y="520" width="50" height="64" fill="#fff" stroke="#111" stroke-width="3"/><rect x="160" y="520" width="50" height="64" fill="#fff" stroke="#111" stroke-width="3"/><rect x="250" y="520" width="50" height="64" fill="#fff" stroke="#111" stroke-width="3"/><rect x="340" y="520" width="50" height="64" fill="#fff" stroke="#111" stroke-width="3"/><rect x="70" y="630" width="50" height="64" fill="#fff" stroke="#111" stroke-width="3"/><rect x="160" y="630" width="50" height="64" fill="#fff" stroke="#111" stroke-width="3"/><rect x="250" y="630" width="50" height="64" fill="#fff" stroke="#111" stroke-width="3"/><rect x="340" y="630" width="50" height="64" fill="#fff" stroke="#111" stroke-width="3"/><rect x="420" y="180" width="300" height="520" fill="url(#htd)" stroke="#111" stroke-width="5"/><rect x="450" y="220" width="50" height="64" fill="#fff" stroke="#111" stroke-width="3"/><rect x="540" y="220" width="50" height="64" fill="#fff" stroke="#111" stroke-width="3"/><rect x="630" y="220" width="50" height="64" fill="#fff" stroke="#111" stroke-width="3"/><rect x="450" y="330" width="50" height="64" fill="#fff" stroke="#111" stroke-width="3"/><rect x="540" y="330" width="50" height="64" fill="#fff" stroke="#111" stroke-width="3"/><rect x="630" y="330" width="50" height="64" fill="#fff" stroke="#111" stroke-width="3"/><rect x="450" y="440" width="50" height="64" fill="#fff" stroke="#111" stroke-width="3"/><rect x="540" y="440" width="50" height="64" fill="#fff" stroke="#111" stroke-width="3"/><rect x="630" y="440" width="50" height="64" fill="#fff" stroke="#111" stroke-width="3"/><rect x="450" y="550" width="50" height="64" fill="#fff" stroke="#111" stroke-width="3"/><rect x="540" y="550" width="50" height="64" fill="#fff" stroke="#111" stroke-width="3"/><rect x="630" y="550" width="50" height="64" fill="#fff" stroke="#111" stroke-width="3"/><rect x="450" y="660" width="50" height="64" fill="#fff" stroke="#111" stroke-width="3"/><rect x="540" y="660" width="50" height="64" fill="#fff" stroke="#111" stroke-width="3"/><rect x="630" y="660" width="50" height="64" fill="#fff" stroke="#111" stroke-width="3"/><rect x="740" y="300" width="330" height="400" fill="url(#htd)" stroke="#111" stroke-width="5"/><rect x="770" y="340" width="50" height="64" fill="#fff" stroke="#111" stroke-width="3"/><rect x="860" y="340" width="50" height="64" fill="#fff" stroke="#111" stroke-width="3"/><rect x="950" y="340" width="50" height="64" fill="#fff" stroke="#111" stroke-width="3"/><rect x="770" y="450" width="50" height="64" fill="#fff" stroke="#111" stroke-width="3"/><rect x="860" y="450" width="50" height="64" fill="#fff" stroke="#111" stroke-width="3"/><rect x="950" y="450" width="50" height="64" fill="#fff" stroke="#111" stroke-width="3"/><rect x="770" y="560" width="50" height="64" fill="#fff" stroke="#111" stroke-width="3"/><rect x="860" y="560" width="50" height="64" fill="#fff" stroke="#111" stroke-width="3"/><rect x="950" y="560" width="50" height="64" fill="#fff" stroke="#111" stroke-width="3"/><rect x="770" y="670" width="50" height="64" fill="#fff" stroke="#111" stroke-width="3"/><rect x="860" y="670" width="50" height="64" fill="#fff" stroke="#111" stroke-width="3"/><rect x="950" y="670" width="50" height="64" fill="#fff" stroke="#111" stroke-width="3"/><rect x="1090" y="230" width="280" height="470" fill="url(#htd)" stroke="#111" stroke-width="5"/><rect x="1120" y="270" width="50" height="64" fill="#fff" stroke="#111" stroke-width="3"/><rect x="1210" y="270" width="50" height="64" fill="#fff" stroke="#111" stroke-width="3"/><rect x="1300" y="270" width="50" height="64" fill="#fff" stroke="#111" stroke-width="3"/><rect x="1120" y="380" width="50" height="64" fill="#fff" stroke="#111" stroke-width="3"/><rect x="1210" y="380" width="50" height="64" fill="#fff" stroke="#111" stroke-width="3"/><rect x="1300" y="380" width="50" height="64" fill="#fff" stroke="#111" stroke-width="3"/><rect x="1120" y="490" width="50" height="64" fill="#fff" stroke="#111" stroke-width="3"/><rect x="1210" y="490" width="50" height="64" fill="#fff" stroke="#111" stroke-width="3"/><rect x="1300" y="490" width="50" height="64" fill="#fff" stroke="#111" stroke-width="3"/><rect x="1120" y="600" width="50" height="64" fill="#fff" stroke="#111" stroke-width="3"/><rect x="1210" y="600" width="50" height="64" fill="#fff" stroke="#111" stroke-width="3"/><rect x="1300" y="600" width="50" height="64" fill="#fff" stroke="#111" stroke-width="3"/><circle cx="600" cy="800" r="26" fill="#111"/><rect x="572" y="826" width="56" height="130" rx="20" fill="#111"/><ellipse cx="600" cy="965" rx="70" ry="14" fill="#000" opacity="0.4"/></svg>