<svg xmlns="http://www.w3.org/2000/svg" viewBox="0 0 1600 1000" preserveAspectRatio="xMidYMid slice">
<defs>
  <pattern id="ht" width="14" height="14" patternUnits="userSpaceOnUse" patternTransform="rotate(0)">
    <rect width="14" height="14" fill="#dcdcdc"/><circle cx="7" cy="7" r="3.1" fill="#111"/>
  </pattern>
  <pattern id="htd" width="12" height="12" patternUnits="userSpaceOnUse">
    <rect width="12" height="12" fill="#9a9a9a"/><circle cx="6" cy="6" r="4.2" fill="#0c0c0c"/>
  </pattern>
  <pattern id="htl" width="16" height="16" patternUnits="userSpaceOnUse">
    <rect width="16" height="16" fill="#f2f2f2"/><circle cx="8" cy="8" r="2.0" fill="#222"/>
  </pattern>
  <pattern id="bricks" width="80" height="44" patternUnits="userSpaceOnUse">
    <rect width="80" height="44" fill="#1a1a1a"/>
    <rect width="80" height="44" fill="none" stroke="#555" stroke-width="2"/>
    <line x1="40" y1="0" x2="40" y2="22" stroke="#555" stroke-width="2"/>
    <line x1="0" y1="22" x2="80" y2="22" stroke="#555" stroke-width="2"/>
    <line x1="0" y1="44" x2="80" y2="44" stroke="#555" stroke-width="2"/>
  </pattern>
  <radialGradient id="glow" cx="50%" cy="42%" r="60%">
    <stop offset="0%" stop-color="#ffffff" stop-opacity="0.9"/>
    <stop offset="55%" stop-color="#cfcfcf" stop-opacity="0.25"/>
    <stop offset="100%" stop-color="#000000" stop-opacity="0"/>
  </radialGradient>
</defs>
<rect width="1600" height="1000" fill="#0b0b0b"/><rect width="1600" height="1000" fill="#0b0b0b"/><rect width="1600" height="1000" fill="url(#glow)" opacity="0.6"/><rect x="0" y="0" width="1600" height="560" fill="url(#htd)"/><polygon points="0,560 1600,560 1380,1000 220,1000" fill="url(#ht)"/><line x1="800" y1="0" x2="800" y2="150" stroke="#f4f4f4" stroke-width="4"/><ellipse cx="800" cy="170" rx="44" ry="30" fill="#fff" stroke="#f4f4f4" stroke-width="4"/><polygon points="800,170 560,640 1040,640" fill="url(#glow)"/><polygon points="600,640 1000,640 1120,820 480,820" fill="#0a0a0a" stroke="#f4f4f4" stroke-width="6"/><rect x="500" y="690" width="80" height="150" fill="#060606" stroke="#f4f4f4" stroke-width="4"/><rect x="1020" y="690" width="80" height="150" fill="#060606" stroke="#f4f4f4" stroke-width="4"/></svg>