<svg xmlns="http://www.w3.org/2000/svg" viewBox="0 0 1600 1000" preserveAspectRatio="xMidYMid slice">
<defs>
  <pattern id="ht" width="14" height="14" patternUnits="userSpaceOnUse" patternTransform="rotate(0)">
    <rect width="14" height="14" fill="#dcdcdc"/><circle cx="7" cy="7" r="3.1" fill="#111"/>
  </pattern>
  <pattern id="htd" width="12" height="12" patternUnits="userSpaceOnUse">
    <rect width="12" height="12" fill="#9a9a9a"/><circle cx="6" cy="6" r="4.2" fill="#0c0c0c"/>
  </pattern>
  <pattern id="htl" width="16" height="16" patternUnits="userSpaceOnUse">
    <rect width="16" height="16" fill="#f2f2f2"/><circle cx="8" cy="8" r="2.0" fill="#222"/>
  </pattern>
  <pattern id="bricks" width="80" height="44" patternUnits="userSpaceOnUse">
    <rect width="80" height="44" fill="#1a1a1a"/>
    <rect width="80" height="44" fill="none" stroke="#555" stroke-width="2"/>
    <line x1="40" y1="0" x2="40" y2="22" stroke="#555" stroke-width="2"/>
    <line x1="0" y1="22" x2="80" y2="22" stroke="#555" stroke-width="2"/>
    <line x1="0" y1="44" x2="80" y2="44" stroke="#555" stroke-width="2"/>
  </pattern>
  <radialGradient id="glow" cx="50%" cy="42%" r="60%">
    <stop offset="0%" stop-color="#ffffff" stop-opacity="0.9"/>
    <stop offset="55%" stop-color="#cfcfcf" stop-opacity="0.25"/>
    <stop offset="100%" stop-color="#000000" stop-opacity="0"/>
  </radialGradient>
</defs>
<rect width="1600" height="1000" fill="#0b0b0b"/><rect width="1600" height="1000" fill="#0b0b0b"/><rect x="0" y="0" width="1600" height="620" fill="url(#htd)"/><rect x="80" y="80" width="90" height="100" fill="url(#htl)" stroke="#f4f4f4" stroke-width="2" opacity="0.8"/><rect x="260" y="80" width="90" height="100" fill="url(#htl)" stroke="#f4f4f4" stroke-width="2" opacity="0.8"/><rect x="440" y="80" width="90" height="100" fill="url(#htl)" stroke="#f4f4f4" stroke-width="2" opacity="0.8"/><rect x="620" y="80" width="90" height="100" fill="url(#htl)" stroke="#f4f4f4" stroke-width="2" opacity="0.8"/><rect x="800" y="80" width="90" height="100" fill="url(#htl)" stroke="#f4f4f4" stroke-width="2" opacity="0.8"/><rect x="980" y="80" width="90" height="100" fill="url(#htl)" stroke="#f4f4f4" stroke-width="2" opacity="0.8"/><rect x="1160" y="80" width="90" height="100" fill="url(#htl)" stroke="#f4f4f4" stroke-width="2" opacity="0.8"/><rect x="1340" y="80" width="90" height="100" fill="url(#htl)" stroke="#f4f4f4" stroke-width="2" opacity="0.8"/><rect x="80" y="230" width="90" height="100" fill="url(#htl)" stroke="#f4f4f4" stroke-width="2" opacity="0.8"/><rect x="260" y="230" width="90" height="100" fill="url(#htl)" stroke="#f4f4f4" stroke-width="2" opacity="0.8"/><rect x="440" y="230" width="90" height="100" fill="url(#htl)" stroke="#f4f4f4" stroke-width="2" opacity="0.8"/><rect x="620" y="230" width="90" height="100" fill="url(#htl)" stroke="#f4f4f4" stroke-width="2" opacity="0.8"/><rect x="800" y="230" width="90" height="100" fill="url(#htl)" stroke="#f4f4f4" stroke-width="2" opacity="0.8"/><rect x="980" y="230" width="90" height="100" fill="url(#htl)" stroke="#f4f4f4" stroke-width="2" opacity="0.8"/><rect x="1160" y="230" width="90" height="100" fill="url(#htl)" stroke="#f4f4f4" stroke-width="2" opacity="0.8"/><rect x="1340" y="230" width="90" height="100" fill="url(#htl)" stroke="#f4f4f4" stroke-width="2" opacity="0.8"/><rect x="80" y="380" width="90" height="100" fill="url(#htl)" stroke="#f4f4f4" stroke-width="2" opacity="0.8"/><rect x="260" y="380" width="90" height="100" fill="url(#htl)" stroke="#f4f4f4" stroke-width="2" opacity="0.8"/><rect x="440" y="380" width="90" height="100" fill="url(#htl)" stroke="#f4f4f4" stroke-width="2" opacity="0.8"/><rect x="620" y="380" width="90" height="100" fill="url(#htl)" stroke="#f4f4f4" stroke-width="2" opacity="0.8"/><rect x="800" y="380" width="90" height="100" fill="url(#htl)" stroke="#f4f4f4" stroke-width="2" opacity="0.8"/><rect x="980" y="380" width="90" height="100" fill="url(#htl)" stroke="#f4f4f4" stroke-width="2" opacity="0.8"/><rect x="1160" y="380" width="90" height="100" fill="url(#htl)" stroke="#f4f4f4" stroke-width="2" opacity="0.8"/><rect x="1340" y="380" width="90" height="100" fill="url(#htl)" stroke="#f4f4f4" stroke-width="2" opacity="0.8"/><rect x="80" y="530" width="90" height="100" fill="url(#htl)" stroke="#f4f4f4" stroke-width="2" opacity="0.8"/><rect x="260" y="530" width="90" height="100" fill="url(#htl)" stroke="#f4f4f4" stroke-width="2" opacity="0.8"/><rect x="440" y="530" width="90" height="100" fill="url(#htl)" stroke="#f4f4f4" stroke-width="2" opacity="0.8"/><rect x="620" y="530" width="90" height="100" fill="url(#htl)" stroke="#f4f4f4" stroke-width="2" opacity="0.8"/><rect x="800" y="530" width="90" height="100" fill="url(#htl)" stroke="#f4f4f4" stroke-width="2" opacity="0.8"/><rect x="980" y="530" width="90" height="100" fill="url(#htl)" stroke="#f4f4f4" stroke-width="2" opacity="0.8"/><rect x="1160" y="530" width="90" height="100" fill="url(#htl)" stroke="#f4f4f4" stroke-width="2" opacity="0.8"/><rect x="1340" y="530" width="90" height="100" fill="url(#htl)" stroke="#f4f4f4" stroke-width="2" opacity="0.8"/><rect x="500" y="430" width="600" height="430" fill="#111" stroke="#f4f4f4" stroke-width="6"/><polygon points="470,430 1130,430 1080,360 520,360" fill="#fff" stroke="#f4f4f4" stroke-width="5"/><rect x="540" y="470" width="520" height="180" fill="url(#htl)" stroke="#f4f4f4" stroke-width="4"/><rect x="560" y="690" width="56" height="80" fill="#fff" stroke="#f4f4f4" stroke-width="3"/><line x1="568" y1="705" x2="608" y2="705" stroke="#111" stroke-width="4"/><rect x="630" y="690" width="56" height="80" fill="#fff" stroke="#f4f4f4" stroke-width="3"/><line x1="638" y1="705" x2="678" y2="705" stroke="#111" stroke-width="4"/><rect x="700" y="690" width="56" height="80" fill="#fff" stroke="#f4f4f4" stroke-width="3"/><line x1="708" y1="705" x2="748" y2="705" stroke="#111" stroke-width="4"/><rect x="770" y="690" width="56" height="80" fill="#fff" stroke="#f4f4f4" stroke-width="3"/><line x1="778" y1="705" x2="818" y2="705" stroke="#111" stroke-width="4"/><rect x="840" y="690" width="56" height="80" fill="#fff" stroke="#f4f4f4" stroke-width="3"/><line x1="848" y1="705" x2="888" y2="705" stroke="#111" stroke-width="4"/><rect x="910" y="690" width="56" height="80" fill="#fff" stroke="#f4f4f4" stroke-width="3"/><line x1="918" y1="705" x2="958" y2="705" stroke="#111" stroke-width="4"/><rect x="980" y="690" width="56" height="80" fill="#fff" stroke="#f4f4f4" stroke-width="3"/><line x1="988" y1="705" x2="1028" y2="705" stroke="#111" stroke-width="4"/><text x="800" y="408" font-family="monospace" font-size="46" fill="#111" text-anchor="middle" font-weight="bold">PRESS</text></svg>