<svg xmlns="http://www.w3.org/2000/svg" viewBox="0 0 1600 1000" preserveAspectRatio="xMidYMid slice">
<defs>
  <pattern id="ht" width="14" height="14" patternUnits="userSpaceOnUse" patternTransform="rotate(0)">
    <rect width="14" height="14" fill="#dcdcdc"/><circle cx="7" cy="7" r="3.1" fill="#111"/>
  </pattern>
  <pattern id="htd" width="12" height="12" patternUnits="userSpaceOnUse">
    <rect width="12" height="12" fill="#9a9a9a"/><circle cx="6" cy="6" r="4.2" fill="#0c0c0c"/>
  </pattern>
  <pattern id="htl" width="16" height="16" patternUnits="userSpaceOnUse">
    <rect width="16" height="16" fill="#f2f2f2"/><circle cx="8" cy="8" r="2.0" fill="#222"/>
  </pattern>
  <pattern id="bricks" width="80" height="44" patternUnits="userSpaceOnUse">
    <rect width="80" height="44" fill="#1a1a1a"/>
    <rect width="80" height="44" fill="none" stroke="#555" stroke-width="2"/>
    <line x1="40" y1="0" x2="40" y2="22" stroke="#555" stroke-width="2"/>
    <line x1="0" y1="22" x2="80" y2="22" stroke="#555" stroke-width="2"/>
    <line x1="0" y1="44" x2="80" y2="44" stroke="#555" stroke-width="2"/>
  </pattern>
  <radialGradient id="glow" cx="50%" cy="42%" r="60%">
    <stop offset="0%" stop-color="#ffffff" stop-opacity="0.9"/>
    <stop offset="55%" stop-color="#cfcfcf" stop-opacity="0.25"/>
    <stop offset="100%" stop-color="#000000" stop-opacity="0"/>
  </radialGradient>
</defs>
<rect width="1600" height="1000" fill="#0b0b0b"/><rect width="1600" height="1000" fill="#0b0b0b"/><rect x="60" y="120" width="420" height="520" fill="url(#htd)" stroke="#f4f4f4" stroke-width="6"/><rect x="80" y="140" width="380" height="480" fill="#fff"/><rect x="80" y="140" width="380" height="480" fill="url(#htl)"/><line x1="100" y1="180" x2="440" y2="180" stroke="#111" stroke-width="6"/><line x1="100" y1="240" x2="440" y2="240" stroke="#111" stroke-width="6"/><line x1="100" y1="300" x2="440" y2="300" stroke="#111" stroke-width="6"/><line x1="100" y1="360" x2="440" y2="360" stroke="#111" stroke-width="6"/><line x1="100" y1="420" x2="440" y2="420" stroke="#111" stroke-width="6"/><line x1="100" y1="480" x2="440" y2="480" stroke="#111" stroke-width="6"/><line x1="100" y1="540" x2="440" y2="540" stroke="#111" stroke-width="6"/><rect x="540" y="60" width="520" height="420" fill="url(#htd)" stroke="#f4f4f4" stroke-width="6"/><rect x="560" y="80" width="480" height="380" fill="#fff"/><rect x="560" y="80" width="480" height="380" fill="url(#htl)"/><line x1="580" y1="120" x2="1020" y2="120" stroke="#111" stroke-width="6"/><line x1="580" y1="180" x2="1020" y2="180" stroke="#111" stroke-width="6"/><line x1="580" y1="240" x2="1020" y2="240" stroke="#111" stroke-width="6"/><line x1="580" y1="300" x2="1020" y2="300" stroke="#111" stroke-width="6"/><line x1="580" y1="360" x2="1020" y2="360" stroke="#111" stroke-width="6"/><rect x="1140" y="150" width="400" height="540" fill="url(#htd)" stroke="#f4f4f4" stroke-width="6"/><rect x="1160" y="170" width="360" height="500" fill="#fff"/><rect x="1160" y="170" width="360" height="500" fill="url(#htl)"/><line x1="1180" y1="210" x2="1500" y2="210" stroke="#111" stroke-width="6"/><line x1="1180" y1="270" x2="1500" y2="270" stroke="#111" stroke-width="6"/><line x1="1180" y1="330" x2="1500" y2="330" stroke="#111" stroke-width="6"/><line x1="1180" y1="390" x2="1500" y2="390" stroke="#111" stroke-width="6"/><line x1="1180" y1="450" x2="1500" y2="450" stroke="#111" stroke-width="6"/><line x1="1180" y1="510" x2="1500" y2="510" stroke="#111" stroke-width="6"/><line x1="1180" y1="570" x2="1500" y2="570" stroke="#111" stroke-width="6"/><rect x="0" y="860" width="1600" height="140" fill="#080808"/><circle cx="60" cy="880" r="18" fill="#111" stroke="#333" stroke-width="2"/><circle cx="130" cy="880" r="18" fill="#111" stroke="#333" stroke-width="2"/><circle cx="200" cy="880" r="18" fill="#111" stroke="#333" stroke-width="2"/><circle cx="270" cy="880" r="18" fill="#111" stroke="#333" stroke-width="2"/><circle cx="340" cy="880" r="18" fill="#111" stroke="#333" stroke-width="2"/><circle cx="410" cy="880" r="18" fill="#111" stroke="#333" stroke-width="2"/><circle cx="480" cy="880" r="18" fill="#111" stroke="#333" stroke-width="2"/><circle cx="550" cy="880" r="18" fill="#111" stroke="#333" stroke-width="2"/><circle cx="620" cy="880" r="18" fill="#111" stroke="#333" stroke-width="2"/><circle cx="690" cy="880" r="18" fill="#111" stroke="#333" stroke-width="2"/><circle cx="760" cy="880" r="18" fill="#111" stroke="#333" stroke-width="2"/><circle cx="830" cy="880" r="18" fill="#111" stroke="#333" stroke-width="2"/><circle cx="900" cy="880" r="18" fill="#111" stroke="#333" stroke-width="2"/><circle cx="970" cy="880" r="18" fill="#111" stroke="#333" stroke-width="2"/><circle cx="1040" cy="880" r="18" fill="#111" stroke="#333" stroke-width="2"/><circle cx="1110" cy="880" r="18" fill="#111" stroke="#333" stroke-width="2"/><circle cx="1180" cy="880" r="18" fill="#111" stroke="#333" stroke-width="2"/><circle cx="1250" cy="880" r="18" fill="#111" stroke="#333" stroke-width="2"/><circle cx="1320" cy="880" r="18" fill="#111" stroke="#333" stroke-width="2"/><circle cx="1390" cy="880" r="18" fill="#111" stroke="#333" stroke-width="2"/><circle cx="1460" cy="880" r="18" fill="#111" stroke="#333" stroke-width="2"/><circle cx="1530" cy="880" r="18" fill="#111" stroke="#333" stroke-width="2"/><rect width="1600" height="1000" fill="url(#glow)" opacity="0.25"/></svg>