<svg xmlns="http://www.w3.org/2000/svg" viewBox="0 0 1600 1000" preserveAspectRatio="xMidYMid slice">
<defs>
  <pattern id="ht" width="14" height="14" patternUnits="userSpaceOnUse" patternTransform="rotate(0)">
    <rect width="14" height="14" fill="#dcdcdc"/><circle cx="7" cy="7" r="3.1" fill="#111"/>
  </pattern>
  <pattern id="htd" width="12" height="12" patternUnits="userSpaceOnUse">
    <rect width="12" height="12" fill="#9a9a9a"/><circle cx="6" cy="6" r="4.2" fill="#0c0c0c"/>
  </pattern>
  <pattern id="htl" width="16" height="16" patternUnits="userSpaceOnUse">
    <rect width="16" height="16" fill="#f2f2f2"/><circle cx="8" cy="8" r="2.0" fill="#222"/>
  </pattern>
  <pattern id="bricks" width="80" height="44" patternUnits="userSpaceOnUse">
    <rect width="80" height="44" fill="#1a1a1a"/>
    <rect width="80" height="44" fill="none" stroke="#555" stroke-width="2"/>
    <line x1="40" y1="0" x2="40" y2="22" stroke="#555" stroke-width="2"/>
    <line x1="0" y1="22" x2="80" y2="22" stroke="#555" stroke-width="2"/>
    <line x1="0" y1="44" x2="80" y2="44" stroke="#555" stroke-width="2"/>
  </pattern>
  <radialGradient id="glow" cx="50%" cy="42%" r="60%">
    <stop offset="0%" stop-color="#ffffff" stop-opacity="0.9"/>
    <stop offset="55%" stop-color="#cfcfcf" stop-opacity="0.25"/>
    <stop offset="100%" stop-color="#000000" stop-opacity="0"/>
  </radialGradient>
</defs>
<rect width="1600" height="1000" fill="#0b0b0b"/><polygon points="0,0 1600,0 1060,350 540,350" fill="url(#htd)"/><polygon points="0,1000 1600,1000 1100,620 500,620" fill="url(#ht)"/><polygon points="0,0 540,350 500,620 0,1000" fill="#0b0b0b"/><polygon points="1600,0 1060,350 1100,620 1600,1000" fill="#0b0b0b"/><rect x="40" y="300" width="150" height="120" rx="10" fill="url(#htl)" stroke="#f4f4f4" stroke-width="3.0"/><rect x="1410" y="300" width="150" height="120" rx="10" fill="url(#htl)" stroke="#f4f4f4" stroke-width="3.0"/><rect x="250" y="288.8" width="108" height="86" rx="10" fill="url(#htl)" stroke="#f4f4f4" stroke-width="2.2"/><rect x="1242" y="288.8" width="108" height="86" rx="10" fill="url(#htl)" stroke="#f4f4f4" stroke-width="2.2"/><rect x="430" y="280.0" width="75" height="60" rx="10" fill="url(#htl)" stroke="#f4f4f4" stroke-width="1.5"/><rect x="1095" y="280.0" width="75" height="60" rx="10" fill="url(#htl)" stroke="#f4f4f4" stroke-width="1.5"/><rect x="560" y="273.6" width="51" height="41" rx="10" fill="url(#htl)" stroke="#f4f4f4" stroke-width="1.0"/><rect x="989" y="273.6" width="51" height="41" rx="10" fill="url(#htl)" stroke="#f4f4f4" stroke-width="1.0"/><rect x="770" y="120" width="60" height="14" rx="6" fill="#fff" opacity="0.9"/><rect x="785" y="190" width="34" height="14" rx="6" fill="#fff" opacity="0.9"/><rect x="793" y="260" width="20" height="14" rx="6" fill="#fff" opacity="0.9"/><line x1="430" y1="430" x2="430" y2="820" stroke="#f4f4f4" stroke-width="9"/><line x1="1180" y1="430" x2="1180" y2="820" stroke="#f4f4f4" stroke-width="9"/><line x1="800" y1="470" x2="3400" y2="470" stroke="#f4f4f4" stroke-width="1.2" opacity="0.12"/><line x1="800" y1="470" x2="3335" y2="1049" stroke="#f4f4f4" stroke-width="1.2" opacity="0.12"/><line x1="800" y1="470" x2="3143" y2="1598" stroke="#f4f4f4" stroke-width="1.2" opacity="0.12"/><line x1="800" y1="470" x2="2833" y2="2091" stroke="#f4f4f4" stroke-width="1.2" opacity="0.12"/><line x1="800" y1="470" x2="2421" y2="2503" stroke="#f4f4f4" stroke-width="1.2" opacity="0.12"/><line x1="800" y1="470" x2="1928" y2="2813" stroke="#f4f4f4" stroke-width="1.2" opacity="0.12"/><line x1="800" y1="470" x2="1379" y2="3005" stroke="#f4f4f4" stroke-width="1.2" opacity="0.12"/><line x1="800" y1="470" x2="800" y2="3070" stroke="#f4f4f4" stroke-width="1.2" opacity="0.12"/><line x1="800" y1="470" x2="221" y2="3005" stroke="#f4f4f4" stroke-width="1.2" opacity="0.12"/><line x1="800" y1="470" x2="-328" y2="2813" stroke="#f4f4f4" stroke-width="1.2" opacity="0.12"/><line x1="800" y1="470" x2="-821" y2="2503" stroke="#f4f4f4" stroke-width="1.2" opacity="0.12"/><line x1="800" y1="470" x2="-1233" y2="2091" stroke="#f4f4f4" stroke-width="1.2" opacity="0.12"/><line x1="800" y1="470" x2="-1543" y2="1598" stroke="#f4f4f4" stroke-width="1.2" opacity="0.12"/><line x1="800" y1="470" x2="-1735" y2="1049" stroke="#f4f4f4" stroke-width="1.2" opacity="0.12"/><line x1="800" y1="470" x2="-1800" y2="470" stroke="#f4f4f4" stroke-width="1.2" opacity="0.12"/><line x1="800" y1="470" x2="-1735" y2="-109" stroke="#f4f4f4" stroke-width="1.2" opacity="0.12"/><line x1="800" y1="470" x2="-1543" y2="-658" stroke="#f4f4f4" stroke-width="1.2" opacity="0.12"/><line x1="800" y1="470" x2="-1233" y2="-1151" stroke="#f4f4f4" stroke-width="1.2" opacity="0.12"/><line x1="800" y1="470" x2="-821" y2="-1563" stroke="#f4f4f4" stroke-width="1.2" opacity="0.12"/><line x1="800" y1="470" x2="-328" y2="-1873" stroke="#f4f4f4" stroke-width="1.2" opacity="0.12"/><line x1="800" y1="470" x2="221" y2="-2065" stroke="#f4f4f4" stroke-width="1.2" opacity="0.12"/><line x1="800" y1="470" x2="800" y2="-2130" stroke="#f4f4f4" stroke-width="1.2" opacity="0.12"/><line x1="800" y1="470" x2="1379" y2="-2065" stroke="#f4f4f4" stroke-width="1.2" opacity="0.12"/><line x1="800" y1="470" x2="1928" y2="-1873" stroke="#f4f4f4" stroke-width="1.2" opacity="0.12"/><line x1="800" y1="470" x2="2421" y2="-1563" stroke="#f4f4f4" stroke-width="1.2" opacity="0.12"/><line x1="800" y1="470" x2="2833" y2="-1151" stroke="#f4f4f4" stroke-width="1.2" opacity="0.12"/><line x1="800" y1="470" x2="3143" y2="-658" stroke="#f4f4f4" stroke-width="1.2" opacity="0.12"/><line x1="800" y1="470" x2="3335" y2="-109" stroke="#f4f4f4" stroke-width="1.2" opacity="0.12"/><rect width="1600" height="1000" fill="url(#glow)" opacity="0.5"/></svg>